<svg width="32" height="32" viewBox="0 0 32 32" fill="none" xmlns="http://www.w3.org/2000/svg">
<path d="M27 7.5C27 5.567 25.433 4 23.5 4C21.567 4 20 5.567 20 7.5C20 9.433 21.567 11 23.5 11C25.433 11 27 9.433 27 7.5Z" stroke="#7A8B9F" stroke-width="3" stroke-linecap="round" stroke-linejoin="round"/>
<path d="M20 7.5L14.9875 7.5C13.3935 7.50215 11.8652 8.13592 10.7375 9.2625L6 14" stroke="#7A8B9F" stroke-width="3" stroke-linecap="round" stroke-linejoin="round"/>
<path d="M11 14L6 14L6 9" stroke="#7A8B9F" stroke-width="3" stroke-linecap="round" stroke-linejoin="round"/>
<path d="M12 24.5C12 22.567 10.433 21 8.5 21C6.567 21 5 22.567 5 24.5C5 26.433 6.567 28 8.5 28C10.433 28 12 26.433 12 24.5Z" stroke="#7A8B9F" stroke-width="3" stroke-linecap="round" stroke-linejoin="round"/>
<path d="M12 24.5L17.0125 24.5C18.6065 24.4978 20.1348 23.8641 21.2625 22.7375L26 18" stroke="#7A8B9F" stroke-width="3" stroke-linecap="round" stroke-linejoin="round"/>
<path d="M21 18L26 18L26 23" stroke="#7A8B9F" stroke-width="3" stroke-linecap="round" stroke-linejoin="round"/>
</svg>
